<?xml version="1.0" standalone="no"?>
<!DOCTYPE svg PUBLIC "-//W3C//DTD SVG 20010904//EN"
 "http://www.w3.org/TR/2001/REC-SVG-20010904/DTD/svg10.dtd">
<svg version="1.0" xmlns="http://www.w3.org/2000/svg"
 width="1536.000000pt" height="1536.000000pt" viewBox="0 0 1536.000000 1536.000000"
 preserveAspectRatio="xMidYMid meet">
<metadata>
Created by potrace 1.14, written by Peter Selinger 2001-2017
</metadata>
<g transform="translate(0.000000,1536.000000) scale(0.100000,-0.100000)"
fill="#000000" stroke="none">
<path d="M7368 15355 c-1 -2 -61 -6 -133 -9 -71 -4 -146 -8 -165 -10 -19 -3
-73 -8 -120 -11 -47 -4 -94 -9 -105 -11 -21 -3 -94 -12 -155 -18 -19 -2 -64
-9 -100 -15 -36 -6 -83 -13 -105 -15 -22 -3 -112 -19 -200 -36 -88 -17 -173
-33 -190 -36 -16 -3 -57 -12 -90 -20 -54 -13 -76 -19 -125 -29 -8 -2 -15 -4
-15 -5 0 -1 -12 -4 -27 -6 -15 -3 -92 -23 -170 -46 -79 -22 -150 -42 -158 -43
-8 -1 -22 -5 -30 -8 -27 -10 -115 -39 -130 -42 -44 -9 -478 -169 -557 -206
-24 -10 -45 -19 -49 -19 -3 0 -31 -12 -62 -27 -31 -15 -62 -28 -67 -29 -6 -1
-46 -19 -90 -40 -44 -21 -82 -39 -85 -39 -8 -1 -285 -142 -344 -174 -273 -151
-315 -176 -418 -243 -31 -21 -62 -38 -67 -38 -6 0 -11 -4 -11 -10 0 -5 -4 -10
-9 -10 -12 0 -195 -122 -199 -132 -2 -5 -8 -8 -13 -8 -9 0 -67 -37 -79 -51 -3
-3 -36 -27 -75 -54 -38 -27 -72 -52 -75 -55 -3 -3 -30 -23 -60 -45 -30 -22
-57 -42 -60 -45 -3 -3 -36 -30 -75 -60 -38 -30 -75 -59 -81 -65 -6 -5 -31 -26
-55 -46 -111 -92 -139 -116 -219 -188 -107 -95 -497 -485 -570 -569 -30 -34
-66 -75 -80 -90 -44 -49 -121 -141 -175 -208 -16 -20 -35 -42 -41 -48 -26 -28
-234 -308 -234 -315 0 -5 -4 -11 -8 -13 -4 -1 -23 -25 -42 -53 -19 -27 -39
-54 -43 -60 -4 -5 -27 -39 -50 -74 -23 -35 -49 -74 -57 -86 -8 -12 -28 -44
-45 -71 -16 -27 -32 -51 -35 -54 -4 -3 -17 -25 -31 -50 -13 -25 -27 -47 -30
-50 -3 -3 -22 -34 -43 -70 -20 -36 -42 -72 -47 -80 -5 -8 -17 -31 -26 -50 -10
-19 -23 -42 -29 -50 -7 -8 -51 -91 -99 -185 -48 -93 -91 -174 -95 -180 -3 -5
-16 -32 -28 -60 -11 -27 -38 -88 -60 -135 -53 -113 -107 -241 -112 -265 -1 -5
-8 -21 -15 -35 -7 -14 -30 -70 -50 -125 -20 -55 -43 -113 -50 -130 -12 -29
-114 -335 -121 -365 -2 -8 -22 -78 -44 -155 -23 -77 -43 -149 -44 -160 -2 -11
-11 -49 -21 -85 -9 -36 -19 -74 -21 -85 -2 -11 -8 -38 -13 -60 -9 -34 -21 -89
-22 -97 0 -2 -4 -21 -9 -43 -5 -22 -16 -78 -25 -125 -8 -47 -17 -96 -20 -110
-9 -40 -18 -103 -19 -122 0 -10 -3 -18 -6 -18 -3 0 -5 -12 -6 -27 0 -16 -3
-50 -7 -78 -20 -137 -28 -205 -42 -355 -4 -41 -9 -88 -10 -105 -23 -227 -27
-1195 -5 -1195 3 0 5 -21 4 -48 0 -26 2 -51 4 -55 2 -5 6 -29 7 -55 6 -80 14
-161 21 -210 11 -78 13 -95 20 -157 3 -33 8 -63 10 -66 2 -4 6 -28 9 -55 3
-27 8 -56 10 -64 3 -8 7 -33 10 -55 3 -22 9 -53 12 -70 3 -16 7 -39 9 -50 1
-11 12 -60 23 -110 12 -49 23 -102 26 -117 5 -35 32 -152 46 -198 6 -19 11
-42 12 -50 2 -8 6 -21 10 -27 5 -7 6 -13 3 -13 -5 0 1 -22 46 -175 11 -38 22
-76 24 -83 2 -7 4 -14 4 -17 5 -20 136 -403 169 -490 43 -114 45 -118 81 -200
12 -27 23 -54 25 -60 3 -15 20 -56 53 -127 16 -35 40 -85 52 -113 26 -60 171
-349 211 -422 16 -29 43 -79 60 -110 48 -88 175 -298 241 -397 32 -48 58 -92
58 -97 0 -5 5 -9 10 -9 6 0 10 -5 10 -11 0 -8 38 -64 78 -114 4 -5 18 -27 31
-48 13 -21 28 -43 35 -50 6 -6 40 -52 76 -102 67 -93 76 -105 116 -149 13 -15
24 -30 24 -34 0 -4 14 -22 31 -39 16 -18 28 -33 25 -33 -2 0 10 -15 27 -34 18
-19 37 -41 43 -48 18 -23 137 -161 169 -197 57 -64 105 -116 115 -126 6 -5 22
-23 38 -39 79 -83 299 -299 361 -356 40 -36 89 -81 110 -100 21 -19 59 -53 86
-75 27 -22 53 -45 59 -51 19 -18 244 -199 311 -249 22 -16 45 -33 50 -38 6 -4
51 -37 100 -72 50 -35 95 -68 100 -72 44 -34 105 -73 113 -73 6 0 12 -4 14 -8
3 -8 51 -40 203 -137 33 -21 74 -46 90 -55 490 -285 726 -400 1270 -615 11 -4
25 -9 30 -11 38 -11 233 -82 243 -88 7 -4 12 -5 12 -1 0 3 17 -2 38 -11 20 -8
44 -17 52 -19 8 -2 94 -26 190 -54 96 -29 184 -53 195 -56 11 -2 56 -13 100
-24 44 -11 91 -22 105 -25 14 -3 90 -18 170 -35 179 -37 212 -43 300 -56 25
-3 67 -10 93 -16 27 -5 53 -7 58 -3 5 3 9 1 9 -4 0 -5 10 -8 22 -7 12 1 40 -2
63 -6 22 -4 74 -10 115 -14 41 -4 86 -8 100 -10 89 -9 175 -17 216 -20 239
-18 713 -26 732 -12 8 6 12 5 12 -2 0 -7 4 -10 8 -7 4 2 75 8 157 11 83 4 166
8 185 10 19 2 71 6 115 9 121 10 214 20 295 33 25 3 59 7 75 9 17 1 30 3 30 3
0 1 18 4 40 6 47 5 91 12 170 26 62 11 75 14 135 24 19 3 53 10 75 15 94 22
191 43 210 44 11 1 30 6 42 10 12 4 30 8 40 10 10 2 74 18 143 36 69 18 132
33 140 35 8 2 16 4 18 5 1 2 5 3 10 4 4 1 23 7 42 14 19 6 44 13 55 15 11 2
27 7 35 10 19 8 271 90 285 93 6 1 24 8 40 15 17 7 32 13 35 14 25 6 119 40
135 48 11 6 22 12 25 12 10 2 126 46 157 60 17 8 33 15 36 15 3 0 40 16 81 35
42 19 78 35 80 35 6 0 220 100 236 110 8 6 26 15 40 20 38 16 70 32 123 62 26
15 47 25 47 21 0 -3 8 1 18 9 9 8 40 26 68 40 27 15 68 36 90 49 21 12 59 33
84 47 25 14 67 39 95 56 28 17 59 36 70 43 77 45 251 158 253 165 2 4 8 8 13
8 7 0 293 199 334 232 6 5 58 46 117 91 179 140 287 231 482 407 79 71 429
425 481 485 22 26 52 59 66 73 15 15 52 59 84 97 32 39 61 72 64 75 4 3 29 33
56 68 28 35 58 73 69 85 39 46 245 326 307 417 35 52 66 97 70 100 3 3 14 20
23 38 9 18 25 42 34 53 9 11 28 39 42 62 14 24 49 82 78 130 28 48 52 92 52
97 0 6 4 10 9 10 5 0 18 19 30 43 12 23 34 65 49 92 32 58 111 205 138 255 10
19 19 42 20 50 2 8 8 16 13 18 6 2 11 9 11 15 0 6 20 52 44 102 52 108 111
238 121 265 1 3 6 16 12 30 6 14 21 50 32 80 12 30 26 64 31 75 50 101 256
722 284 858 3 12 12 47 21 77 8 30 18 71 21 90 3 19 8 38 10 42 4 6 12 45 30
138 3 14 9 41 14 60 5 19 12 51 15 70 3 19 10 53 15 75 5 22 11 60 15 85 7 49
12 82 20 120 6 29 13 80 20 135 3 22 12 94 20 160 38 298 40 357 40 940 0 480
-5 660 -20 760 -7 46 -18 166 -19 203 -1 17 -3 32 -6 32 -4 0 -7 10 -7 23 -2
30 -17 138 -29 212 -3 17 -7 44 -10 60 -2 17 -6 41 -9 55 -6 28 -17 88 -20
110 -1 8 -5 26 -8 40 -3 14 -13 61 -23 105 -9 44 -25 116 -36 160 -11 44 -21
87 -23 96 -2 8 -17 69 -35 135 -17 65 -33 126 -35 134 -2 8 -13 42 -25 75 -11
33 -20 61 -20 63 0 1 0 3 -1 5 0 1 -2 9 -4 17 -4 23 -84 262 -94 285 -5 11
-15 38 -22 60 -6 22 -15 45 -19 50 -3 6 -17 39 -30 75 -32 93 -117 295 -181
436 -11 22 -19 46 -19 52 0 7 -4 12 -10 12 -5 0 -10 5 -10 12 0 12 -109 239
-119 248 -4 3 -20 34 -38 70 -18 36 -49 94 -69 130 -20 36 -47 85 -61 110 -13
25 -44 77 -68 115 -24 39 -54 89 -66 113 -12 23 -25 42 -30 42 -5 0 -9 5 -9
10 0 13 -160 254 -172 258 -4 2 -8 8 -8 13 0 8 -65 105 -80 119 -3 3 -18 23
-33 46 -15 22 -35 49 -45 60 -9 10 -33 40 -52 67 -72 98 -192 246 -237 293 -7
7 -13 17 -13 23 0 6 -4 11 -8 11 -4 0 -29 26 -56 58 -71 84 -236 261 -356 380
-127 126 -292 280 -396 369 -27 23 -62 54 -79 68 -16 14 -65 54 -107 88 -43
34 -78 65 -78 69 0 4 -5 8 -10 8 -6 0 -45 27 -88 60 -42 33 -82 64 -87 68 -6
4 -35 26 -66 50 -31 23 -61 42 -67 42 -7 0 -12 4 -12 8 0 5 -28 27 -62 50 -35
23 -72 48 -83 56 -34 24 -166 110 -201 131 -19 11 -75 45 -126 76 -51 31 -115
69 -143 84 -27 15 -54 31 -60 35 -34 25 -451 237 -570 290 -27 12 -75 33 -105
47 -30 14 -59 26 -65 27 -5 2 -26 9 -45 18 -19 8 -60 25 -90 38 -30 12 -64 26
-75 31 -18 7 -81 31 -240 89 -33 12 -64 23 -70 25 -5 1 -17 5 -25 8 -20 7 -94
31 -100 32 -3 0 -11 4 -17 8 -7 5 -13 6 -13 3 0 -3 -12 -1 -27 5 -49 19 -370
111 -433 124 -8 2 -42 10 -75 18 -33 9 -72 18 -87 21 -16 4 -39 8 -53 11 -30
6 -54 11 -120 26 -27 6 -61 12 -75 14 -14 2 -25 4 -25 5 0 1 -9 3 -20 4 -57 9
-115 18 -153 27 -24 5 -48 7 -53 4 -5 -4 -9 -3 -9 2 0 4 -12 9 -27 9 -16 1
-41 4 -58 7 -16 3 -55 8 -85 12 -30 3 -71 8 -90 11 -19 3 -53 7 -75 9 -22 2
-71 7 -110 11 -38 4 -90 8 -115 9 -25 2 -45 4 -45 5 0 8 -878 23 -887 15z"/>
</g>
</svg>
